<svg xmlns="http://www.w3.org/2000/svg" xmlns:xlink="http://www.w3.org/1999/xlink" width="40" zoomAndPan="magnify" viewBox="0 0 30 30.000001" height="40" preserveAspectRatio="xMidYMid meet" version="1.0"><defs><clipPath id="4bb26243cb"><path d="M 1.933594 1.453125 L 28.066406 1.453125 L 28.066406 27.582031 L 1.933594 27.582031 Z M 1.933594 1.453125 " clip-rule="nonzero"/></clipPath><clipPath id="9c3f357321"><path d="M 1.933594 9.742188 C 1.933594 9.402344 2.074219 9.089844 2.292969 8.871094 C 2.519531 8.644531 2.824219 8.507812 3.164062 8.507812 C 3.503906 8.507812 3.816406 8.644531 4.035156 8.871094 C 4.121094 8.960938 4.199219 9.054688 4.253906 9.167969 L 7.03125 9.167969 L 7.03125 8.453125 C 7.03125 7.921875 7.238281 7.453125 7.589844 7.105469 C 7.9375 6.753906 8.40625 6.546875 8.9375 6.546875 L 9.652344 6.546875 L 9.652344 3.769531 C 9.539062 3.714844 9.441406 3.636719 9.355469 3.550781 C 9.128906 3.332031 8.992188 3.019531 8.992188 2.679688 C 8.992188 2.339844 9.128906 2.035156 9.355469 1.808594 C 9.574219 1.589844 9.886719 1.453125 10.226562 1.453125 C 10.566406 1.453125 10.871094 1.589844 11.089844 1.808594 C 11.316406 2.035156 11.457031 2.339844 11.457031 2.679688 C 11.457031 3.019531 11.316406 3.332031 11.089844 3.550781 C 11.003906 3.636719 10.90625 3.714844 10.792969 3.769531 L 10.792969 6.546875 L 14.417969 6.546875 L 14.417969 3.769531 C 14.3125 3.714844 14.207031 3.636719 14.121094 3.550781 C 13.902344 3.332031 13.761719 3.019531 13.761719 2.679688 C 13.761719 2.339844 13.902344 2.035156 14.121094 1.808594 C 14.347656 1.589844 14.652344 1.453125 14.992188 1.453125 C 15.332031 1.453125 15.636719 1.589844 15.863281 1.808594 C 16.089844 2.035156 16.21875 2.339844 16.21875 2.679688 C 16.21875 3.019531 16.089844 3.332031 15.863281 3.550781 C 15.773438 3.636719 15.679688 3.714844 15.566406 3.769531 L 15.566406 6.546875 L 19.1875 6.546875 L 19.1875 3.769531 C 19.074219 3.714844 18.980469 3.636719 18.894531 3.550781 C 18.667969 3.332031 18.535156 3.019531 18.535156 2.679688 C 18.535156 2.339844 18.667969 2.035156 18.894531 1.808594 C 19.109375 1.589844 19.425781 1.453125 19.765625 1.453125 C 20.105469 1.453125 20.410156 1.589844 20.636719 1.808594 C 20.851562 2.035156 20.992188 2.339844 20.992188 2.679688 C 20.992188 3.019531 20.851562 3.332031 20.636719 3.550781 C 20.546875 3.636719 20.445312 3.714844 20.332031 3.769531 L 20.332031 6.546875 L 21.054688 6.546875 C 21.574219 6.546875 22.054688 6.753906 22.394531 7.105469 C 22.742188 7.453125 22.960938 7.921875 22.960938 8.453125 L 22.960938 9.167969 L 25.730469 9.167969 C 25.792969 9.054688 25.859375 8.960938 25.949219 8.871094 C 26.175781 8.644531 26.480469 8.507812 26.820312 8.507812 C 27.160156 8.507812 27.464844 8.644531 27.691406 8.871094 C 27.917969 9.089844 28.046875 9.402344 28.046875 9.742188 C 28.046875 10.082031 27.917969 10.386719 27.691406 10.605469 C 27.464844 10.832031 27.160156 10.972656 26.820312 10.972656 C 26.480469 10.972656 26.175781 10.832031 25.949219 10.605469 C 25.859375 10.519531 25.792969 10.421875 25.730469 10.308594 L 22.960938 10.308594 L 22.960938 13.933594 L 25.730469 13.933594 C 25.792969 13.828125 25.859375 13.722656 25.949219 13.636719 C 26.175781 13.417969 26.480469 13.28125 26.820312 13.28125 C 27.160156 13.28125 27.464844 13.417969 27.691406 13.636719 C 27.917969 13.863281 28.046875 14.167969 28.046875 14.507812 C 28.046875 14.847656 27.917969 15.152344 27.691406 15.378906 C 27.464844 15.605469 27.160156 15.734375 26.820312 15.734375 C 26.480469 15.734375 26.175781 15.605469 25.949219 15.378906 C 25.859375 15.292969 25.792969 15.195312 25.730469 15.082031 L 22.960938 15.082031 L 22.960938 18.707031 L 25.730469 18.707031 C 25.792969 18.59375 25.859375 18.496094 25.949219 18.410156 C 26.175781 18.183594 26.480469 18.050781 26.820312 18.050781 C 27.160156 18.050781 27.464844 18.183594 27.691406 18.410156 C 27.917969 18.628906 28.046875 18.941406 28.046875 19.28125 C 28.046875 19.621094 27.917969 19.925781 27.691406 20.152344 C 27.464844 20.367188 27.160156 20.507812 26.820312 20.507812 C 26.480469 20.507812 26.175781 20.367188 25.949219 20.152344 C 25.859375 20.0625 25.792969 19.960938 25.730469 19.847656 L 22.960938 19.847656 L 22.960938 20.570312 C 22.960938 21.09375 22.742188 21.570312 22.394531 21.910156 C 22.054688 22.257812 21.574219 22.476562 21.054688 22.476562 L 20.332031 22.476562 L 20.332031 25.246094 C 20.445312 25.308594 20.546875 25.378906 20.636719 25.464844 C 20.851562 25.691406 20.992188 25.996094 20.992188 26.335938 C 20.992188 26.675781 20.851562 26.980469 20.636719 27.207031 C 20.410156 27.433594 20.105469 27.5625 19.765625 27.5625 C 19.425781 27.5625 19.109375 27.433594 18.894531 27.207031 C 18.667969 26.980469 18.535156 26.675781 18.535156 26.335938 C 18.535156 25.996094 18.667969 25.691406 18.894531 25.464844 C 18.980469 25.378906 19.074219 25.308594 19.1875 25.246094 L 19.1875 22.476562 L 15.566406 22.476562 L 15.566406 25.246094 C 15.679688 25.308594 15.773438 25.378906 15.863281 25.464844 C 16.089844 25.691406 16.21875 25.996094 16.21875 26.335938 C 16.21875 26.675781 16.089844 26.980469 15.863281 27.207031 C 15.636719 27.433594 15.332031 27.5625 14.992188 27.5625 C 14.652344 27.5625 14.347656 27.433594 14.121094 27.207031 C 13.902344 26.980469 13.761719 26.675781 13.761719 26.335938 C 13.761719 25.996094 13.902344 25.691406 14.121094 25.464844 C 14.207031 25.378906 14.3125 25.308594 14.417969 25.246094 L 14.417969 22.476562 L 10.792969 22.476562 L 10.792969 25.246094 C 10.90625 25.308594 11.003906 25.378906 11.089844 25.464844 C 11.316406 25.691406 11.457031 25.996094 11.457031 26.335938 C 11.457031 26.675781 11.316406 26.980469 11.089844 27.207031 C 10.871094 27.433594 10.566406 27.5625 10.226562 27.5625 C 9.886719 27.5625 9.574219 27.433594 9.355469 27.207031 C 9.128906 26.980469 8.992188 26.675781 8.992188 26.335938 C 8.992188 25.996094 9.128906 25.691406 9.355469 25.464844 C 9.441406 25.378906 9.539062 25.308594 9.652344 25.246094 L 9.652344 22.476562 L 8.9375 22.476562 C 8.40625 22.476562 7.9375 22.257812 7.589844 21.910156 C 7.238281 21.570312 7.03125 21.09375 7.03125 20.570312 L 7.03125 19.847656 L 4.253906 19.847656 C 4.199219 19.960938 4.121094 20.0625 4.035156 20.152344 C 3.816406 20.367188 3.503906 20.507812 3.164062 20.507812 C 2.824219 20.507812 2.519531 20.367188 2.292969 20.152344 C 2.074219 19.925781 1.933594 19.621094 1.933594 19.28125 C 1.933594 18.941406 2.074219 18.628906 2.292969 18.410156 C 2.519531 18.183594 2.824219 18.050781 3.164062 18.050781 C 3.503906 18.050781 3.816406 18.183594 4.035156 18.410156 C 4.121094 18.496094 4.199219 18.59375 4.253906 18.707031 L 7.03125 18.707031 L 7.03125 15.082031 L 4.253906 15.082031 C 4.199219 15.195312 4.121094 15.292969 4.035156 15.378906 C 3.816406 15.605469 3.503906 15.734375 3.164062 15.734375 C 2.824219 15.734375 2.519531 15.605469 2.292969 15.378906 C 2.074219 15.152344 1.933594 14.847656 1.933594 14.507812 C 1.933594 14.167969 2.074219 13.863281 2.292969 13.636719 C 2.519531 13.417969 2.824219 13.28125 3.164062 13.28125 C 3.503906 13.28125 3.816406 13.417969 4.035156 13.636719 C 4.121094 13.722656 4.199219 13.828125 4.253906 13.933594 L 7.03125 13.933594 L 7.03125 10.308594 L 4.253906 10.308594 C 4.199219 10.421875 4.121094 10.519531 4.035156 10.605469 C 3.816406 10.832031 3.503906 10.972656 3.164062 10.972656 C 2.824219 10.972656 2.519531 10.832031 2.292969 10.605469 C 2.074219 10.386719 1.933594 10.082031 1.933594 9.742188 Z M 11.089844 9.167969 L 18.902344 9.167969 C 19.292969 9.167969 19.652344 9.324219 19.914062 9.585938 C 20.171875 9.847656 20.332031 10.203125 20.332031 10.605469 L 20.332031 18.417969 C 20.332031 18.808594 20.171875 19.167969 19.914062 19.429688 C 19.652344 19.691406 19.292969 19.847656 18.902344 19.847656 L 11.089844 19.847656 C 10.6875 19.847656 10.332031 19.691406 10.070312 19.429688 C 9.808594 19.167969 9.652344 18.808594 9.652344 18.417969 L 9.652344 10.605469 C 9.652344 10.203125 9.808594 9.847656 10.070312 9.585938 C 10.332031 9.324219 10.6875 9.167969 11.089844 9.167969 Z M 18.902344 10.308594 L 11.089844 10.308594 C 11.003906 10.308594 10.933594 10.34375 10.878906 10.394531 C 10.828125 10.449219 10.792969 10.519531 10.792969 10.605469 L 10.792969 18.417969 C 10.792969 18.496094 10.828125 18.566406 10.878906 18.617188 C 10.933594 18.671875 11.003906 18.707031 11.089844 18.707031 L 18.902344 18.707031 C 18.980469 18.707031 19.050781 18.671875 19.101562 18.617188 C 19.15625 18.566406 19.1875 18.496094 19.1875 18.417969 L 19.1875 16.605469 L 17.542969 16.605469 L 17.542969 15.464844 L 19.1875 15.464844 L 19.1875 13.558594 L 15.332031 13.558594 L 15.332031 12.410156 L 19.1875 12.410156 L 19.1875 10.605469 C 19.1875 10.519531 19.15625 10.449219 19.101562 10.394531 C 19.050781 10.34375 18.980469 10.308594 18.902344 10.308594 Z M 21.054688 7.6875 L 8.9375 7.6875 C 8.730469 7.6875 8.539062 7.773438 8.398438 7.914062 C 8.257812 8.054688 8.171875 8.246094 8.171875 8.453125 L 8.171875 20.570312 C 8.171875 20.777344 8.257812 20.960938 8.398438 21.101562 C 8.539062 21.238281 8.730469 21.328125 8.9375 21.328125 L 21.054688 21.328125 C 21.261719 21.328125 21.445312 21.238281 21.585938 21.101562 C 21.722656 20.960938 21.8125 20.777344 21.8125 20.570312 L 21.8125 8.453125 C 21.8125 8.246094 21.722656 8.054688 21.585938 7.914062 C 21.445312 7.773438 21.261719 7.6875 21.054688 7.6875 Z M 21.054688 7.6875 " clip-rule="evenodd"/></clipPath></defs><g clip-path="url(#4bb26243cb)"><g clip-path="url(#9c3f357321)"><path fill="#ffffff" d="M 1.933594 1.453125 L 1.933594 27.5625 L 28.046875 27.5625 L 28.046875 1.453125 Z M 1.933594 1.453125 " fill-opacity="1" fill-rule="nonzero"/></g></g></svg>